<?xml version="1.0" encoding="UTF-8"?>
<svg width="50px" height="40px" viewBox="0 0 50 40" version="1.1" xmlns="http://www.w3.org/2000/svg" xmlns:xlink="http://www.w3.org/1999/xlink">
    <title>Logo</title>
    <g id="Page-1" stroke="none" stroke-width="1" fill="none" fill-rule="evenodd">
        <g id="RA_Desktop_simple" transform="translate(-160.000000, -65.000000)" fill="#2B2D2F">
            <g id="NAV" transform="translate(160.000000, 65.000000)">
                <path d="M11.6522955,18.5454545 L11.6522955,9.93163636 L20.2779072,18.5454545 L11.6522955,18.5454545 Z M42.9678397,12.1818182 C42.9678397,15.6907636 40.1092403,18.5454545 36.5954906,18.5454545 L28.5160802,18.5454545 L15.771382,5.81818182 L36.5954906,5.81818182 C40.1092403,5.81818182 42.9678397,8.67287273 42.9678397,12.1818182 L42.9678397,12.1818182 Z M49.959217,39.9592727 L49.959217,34.1818182 L44.1738522,34.1818182 L34.3422279,24.3636364 L36.5954906,24.3636364 C43.3217781,24.3636364 48.7939874,18.8989091 48.7939874,12.1818182 C48.7939874,5.46472727 43.3217781,0 36.5954906,0 L5.82614775,0 L0,0 L0,5.81818182 L5.82614775,5.81818182 L5.82614775,24.3636364 L5.82614775,34.1818182 L0,34.1818182 L0,40 L5.82614775,40 L11.6522955,40 L17.4784433,40 L17.4784433,34.1818182 L11.6522955,34.1818182 L11.6522955,24.3636364 L26.104055,24.3636364 L35.9356793,34.1818182 L32.4807737,34.1818182 L32.4807737,40 L41.7618271,40 L44.1330692,40 L49.959217,40 L50,40 L49.959217,39.9592727 Z" id="Logo"></path>
            </g>
        </g>
    </g>
</svg>